<mxfile host="Electron" modified="2023-04-02T00:17:00.312Z" agent="Mozilla/5.0 (Windows NT 10.0; Win64; x64) AppleWebKit/537.36 (KHTML, like Gecko) draw.io/21.1.2 Chrome/106.0.5249.199 Electron/21.4.3 Safari/537.36" etag="xphdiIECylw3k9tWrBfo" version="21.1.2" type="device">
  <diagram name="Страница 1" id="qnGdcMnxUybDG7il9IPh">
    <mxGraphModel dx="1847" dy="1713" grid="1" gridSize="10" guides="1" tooltips="1" connect="1" arrows="1" fold="1" page="1" pageScale="1" pageWidth="827" pageHeight="1169" math="0" shadow="0">
      <root>
        <mxCell id="0" />
        <mxCell id="1" parent="0" />
        <mxCell id="PMggo2Us4KmdrcTztWQm-12" style="edgeStyle=orthogonalEdgeStyle;rounded=0;orthogonalLoop=1;jettySize=auto;html=1;entryX=0.5;entryY=1;entryDx=0;entryDy=0;" edge="1" parent="1" source="PMggo2Us4KmdrcTztWQm-5" target="PMggo2Us4KmdrcTztWQm-1">
          <mxGeometry relative="1" as="geometry" />
        </mxCell>
        <mxCell id="PMggo2Us4KmdrcTztWQm-13" value="" style="edgeStyle=orthogonalEdgeStyle;rounded=0;orthogonalLoop=1;jettySize=auto;html=1;" edge="1" parent="1" source="PMggo2Us4KmdrcTztWQm-2" target="PMggo2Us4KmdrcTztWQm-1">
          <mxGeometry relative="1" as="geometry" />
        </mxCell>
        <mxCell id="PMggo2Us4KmdrcTztWQm-19" style="edgeStyle=orthogonalEdgeStyle;rounded=0;orthogonalLoop=1;jettySize=auto;html=1;exitX=0.75;exitY=1;exitDx=0;exitDy=0;entryX=1;entryY=0.3333333333333333;entryDx=0;entryDy=0;entryPerimeter=0;" edge="1" parent="1" source="PMggo2Us4KmdrcTztWQm-1" target="PMggo2Us4KmdrcTztWQm-5">
          <mxGeometry relative="1" as="geometry">
            <Array as="points">
              <mxPoint x="410" y="360" />
            </Array>
          </mxGeometry>
        </mxCell>
        <mxCell id="PMggo2Us4KmdrcTztWQm-1" value="Nude.API" style="rounded=0;whiteSpace=wrap;html=1;" vertex="1" parent="1">
          <mxGeometry x="320" y="120" width="120" height="40" as="geometry" />
        </mxCell>
        <mxCell id="PMggo2Us4KmdrcTztWQm-14" value="" style="edgeStyle=orthogonalEdgeStyle;rounded=0;orthogonalLoop=1;jettySize=auto;html=1;" edge="1" parent="1" source="PMggo2Us4KmdrcTztWQm-2" target="PMggo2Us4KmdrcTztWQm-1">
          <mxGeometry relative="1" as="geometry" />
        </mxCell>
        <mxCell id="PMggo2Us4KmdrcTztWQm-2" value="Nude.Tg.Bot" style="rounded=0;whiteSpace=wrap;html=1;shadow=0;" vertex="1" parent="1">
          <mxGeometry x="320" y="230" width="120" height="40" as="geometry" />
        </mxCell>
        <mxCell id="PMggo2Us4KmdrcTztWQm-5" value="Client" style="shape=umlActor;verticalLabelPosition=bottom;verticalAlign=top;html=1;outlineConnect=0;" vertex="1" parent="1">
          <mxGeometry x="365" y="340" width="30" height="60" as="geometry" />
        </mxCell>
        <mxCell id="PMggo2Us4KmdrcTztWQm-6" value="Frontend" style="text;html=1;strokeColor=none;fillColor=none;align=center;verticalAlign=middle;whiteSpace=wrap;rounded=0;" vertex="1" parent="1">
          <mxGeometry x="180" y="235" width="60" height="30" as="geometry" />
        </mxCell>
        <mxCell id="PMggo2Us4KmdrcTztWQm-9" value="" style="endArrow=none;dashed=1;html=1;dashPattern=1 3;strokeWidth=2;rounded=0;exitX=1;exitY=0.5;exitDx=0;exitDy=0;entryX=0;entryY=0.5;entryDx=0;entryDy=0;" edge="1" parent="1" source="PMggo2Us4KmdrcTztWQm-6" target="PMggo2Us4KmdrcTztWQm-2">
          <mxGeometry width="50" height="50" relative="1" as="geometry">
            <mxPoint x="430" y="320" as="sourcePoint" />
            <mxPoint x="480" y="270" as="targetPoint" />
          </mxGeometry>
        </mxCell>
        <mxCell id="PMggo2Us4KmdrcTztWQm-10" value="Backend" style="text;html=1;strokeColor=none;fillColor=none;align=center;verticalAlign=middle;whiteSpace=wrap;rounded=0;" vertex="1" parent="1">
          <mxGeometry x="180" y="125" width="60" height="30" as="geometry" />
        </mxCell>
        <mxCell id="PMggo2Us4KmdrcTztWQm-11" value="" style="endArrow=none;dashed=1;html=1;dashPattern=1 3;strokeWidth=2;rounded=0;exitX=1;exitY=0.5;exitDx=0;exitDy=0;entryX=0;entryY=0.5;entryDx=0;entryDy=0;" edge="1" parent="1" source="PMggo2Us4KmdrcTztWQm-10" target="PMggo2Us4KmdrcTztWQm-1">
          <mxGeometry width="50" height="50" relative="1" as="geometry">
            <mxPoint x="430" y="290" as="sourcePoint" />
            <mxPoint x="480" y="240" as="targetPoint" />
          </mxGeometry>
        </mxCell>
        <mxCell id="PMggo2Us4KmdrcTztWQm-15" value="Nude.API.Db" style="shape=cylinder3;whiteSpace=wrap;html=1;boundedLbl=1;backgroundOutline=1;size=15;" vertex="1" parent="1">
          <mxGeometry x="409" y="-20" width="90" height="60" as="geometry" />
        </mxCell>
        <mxCell id="PMggo2Us4KmdrcTztWQm-16" value="Resources" style="rounded=0;whiteSpace=wrap;html=1;" vertex="1" parent="1">
          <mxGeometry x="260" y="-30" width="80" height="80" as="geometry" />
        </mxCell>
        <mxCell id="PMggo2Us4KmdrcTztWQm-17" value="" style="endArrow=classic;startArrow=classic;html=1;rounded=0;exitX=0.5;exitY=0;exitDx=0;exitDy=0;entryX=0.5;entryY=1;entryDx=0;entryDy=0;entryPerimeter=0;" edge="1" parent="1" source="PMggo2Us4KmdrcTztWQm-1" target="PMggo2Us4KmdrcTztWQm-15">
          <mxGeometry width="50" height="50" relative="1" as="geometry">
            <mxPoint x="500" y="130" as="sourcePoint" />
            <mxPoint x="550" y="80" as="targetPoint" />
          </mxGeometry>
        </mxCell>
        <mxCell id="PMggo2Us4KmdrcTztWQm-18" value="" style="endArrow=classic;startArrow=classic;html=1;rounded=0;exitX=0.5;exitY=1;exitDx=0;exitDy=0;entryX=0.5;entryY=0;entryDx=0;entryDy=0;" edge="1" parent="1" source="PMggo2Us4KmdrcTztWQm-16" target="PMggo2Us4KmdrcTztWQm-1">
          <mxGeometry width="50" height="50" relative="1" as="geometry">
            <mxPoint x="500" y="130" as="sourcePoint" />
            <mxPoint x="550" y="80" as="targetPoint" />
          </mxGeometry>
        </mxCell>
        <mxCell id="PMggo2Us4KmdrcTztWQm-20" value="&lt;h1&gt;Nude.API&lt;/h1&gt;&lt;div&gt;Функция: парсить или искать контент по ссылкам, названиям и прочему. Сперва ищет в БД, после создает билет на поиск или парсинг контента, который обрабатывается в background сервисе&lt;/div&gt;" style="text;html=1;strokeColor=none;fillColor=none;spacing=5;spacingTop=-20;whiteSpace=wrap;overflow=hidden;rounded=0;" vertex="1" parent="1">
          <mxGeometry x="-10" y="40" width="190" height="160" as="geometry" />
        </mxCell>
        <mxCell id="PMggo2Us4KmdrcTztWQm-21" value="&lt;h1&gt;Nude.Tg.Bot&lt;/h1&gt;&lt;div&gt;Функция: взаимодействует с Nude.API для поиска существующего контента. Если такой не был найден, тогда отправляет запрос на поиск или парсинг и ожидает callback от бэкенда с информацией об операции (id и status). После получения результата отправляет пользователю (если манга, то создает статью в Telegraph и ДР)&lt;/div&gt;" style="text;html=1;strokeColor=none;fillColor=none;spacing=5;spacingTop=-20;whiteSpace=wrap;overflow=hidden;rounded=0;" vertex="1" parent="1">
          <mxGeometry x="-10" y="200" width="190" height="230" as="geometry" />
        </mxCell>
      </root>
    </mxGraphModel>
  </diagram>
</mxfile>
